<?xml version="1.0" encoding="utf-8"?>
<!-- Generator: Adobe Illustrator 26.0.2, SVG Export Plug-In . SVG Version: 6.00 Build 0)  -->
<svg version="1.1" id="Layer_1" xmlns="http://www.w3.org/2000/svg" xmlns:xlink="http://www.w3.org/1999/xlink" x="0px" y="0px"
	 viewBox="0 0 840 562" style="enable-background:new 0 0 840 562;" xml:space="preserve">
<style type="text/css">
	.st0{fill:url(#SVGID_1_);}
	.st1{fill:#80C7F5;}
	.st2{fill:#9DD8F9;}
	.st3{fill:#CCCCCC;}
	.st4{fill:#FFFFFF;}
	.st5{fill:#E6E6E6;}
	.st6{fill:#2B454E;}
	.st7{fill:#EEEEEE;}
	.st8{opacity:0.6;fill:#68B2FF;}
	.st9{clip-path:url(#SVGID_00000008850637493637883250000011981143813798830261_);fill:#2B454E;}
	.st10{clip-path:url(#SVGID_00000008850637493637883250000011981143813798830261_);fill:#E6E6E6;}
	.st11{clip-path:url(#SVGID_00000008850637493637883250000011981143813798830261_);fill:none;}
	.st12{opacity:0.6;}
	.st13{opacity:0.5;fill:#68B2FF;}
	.st14{clip-path:url(#SVGID_00000094606611333821485510000004014005437703223480_);fill:#2B454E;}
	.st15{clip-path:url(#SVGID_00000094606611333821485510000004014005437703223480_);fill:#E6E6E6;}
	.st16{clip-path:url(#SVGID_00000094606611333821485510000004014005437703223480_);fill:none;}
	.st17{fill:url(#SVGID_00000177459955820262526700000015623855918813967764_);}
	.st18{fill:url(#SVGID_00000155826844343980645400000018344435866072611232_);}
	.st19{fill:url(#SVGID_00000081640592135089298070000012304247844859334825_);}
	.st20{fill:url(#SVGID_00000182528539558240364530000014015889969074635709_);}
	.st21{fill:url(#XMLID_00000181792246002105690960000013426526169729377164_);}
</style>
<linearGradient id="SVGID_1_" gradientUnits="userSpaceOnUse" x1="96.7352" y1="228.9563" x2="875.5974" y2="449.4194">
	<stop  offset="0" style="stop-color:#E8009F"/>
	<stop  offset="1" style="stop-color:#69C7F9"/>
</linearGradient>
<path class="st0" d="M44.9,334.8l355.8,205.4c9.8,5.7,21.9,5.7,31.8,0l355.9-205.5c11.8-6.8,11.8-23.8,0-30.6L432.5,98.8
	c-9.8-5.7-21.9-5.7-31.8,0L44.9,304.2C33.1,311,33.1,328,44.9,334.8z"/>
<path class="st1" d="M113.8,190.9c0,37.6,30.7,83.4,68.3,102.2l264.6,132.3c10.6,5.3,20.6,8,29.9,8c5.6,0,10.8-1,15.3-3l0.4-0.4
	l0.4,0l0.4-0.3h0.4l1.5-0.8c11.3-6.4,17.5-19.1,17.5-35.9c0-15.3-3.3-34.9-12.8-51.6L294.5,238.8c-38.6-19.3-69.8-66.1-69.8-104.6
	c0-1,0-2,0.1-2.9L178,157.6l-1.2-0.5c-9.5-4.3-18.6-6.6-27-6.6c-5.7,0-10.9,1-15.5,3C121,159.5,113.8,172.7,113.8,190.9z"/>
<path class="st2" d="M179.6,139.8c0,3.5,0.2,7,0.6,10.6l7.1,16.8l137.8-64.9l-38.5,0.2l-0.6-0.4c-1.1-0.7-2.1-1.4-3.2-2
	c-1.7-1.1-3.4-2.1-5.1-3c-1.5-0.8-3.1-1.7-4.6-2.4l-1.1-0.6c-14.6-7.3-28.7-11-41.7-11c-7,0-13.6,1.1-19.5,3.3l-0.4,0.4h-0.6
	c-16.4,6.5-26.9,21.6-29.4,42.4C179.8,132.6,179.6,136.1,179.6,139.8z"/>
<polygon class="st3" points="362.7,293.1 289.9,329.5 289.9,167.1 362.7,130.6 "/>
<polygon class="st4" points="289.9,329.5 217,293.1 217,130.6 289.9,167.1 "/>
<polygon class="st5" points="269.8,286.4 223,263 223,248.4 269.8,271.8 "/>
<polygon class="st6" points="283.3,293.1 269.8,286.4 269.8,271.8 283.3,278.5 "/>
<polygon class="st1" points="272.4,274.5 275.1,275.8 275.1,287.7 272.4,286.3 "/>
<polygon class="st5" points="269.8,262.6 223,239.1 223,224.5 269.8,248 "/>
<polygon class="st6" points="283.3,269.3 269.8,262.6 269.8,248 283.3,254.7 "/>
<polygon class="st1" points="272.4,250.7 275.1,252 275.1,263.8 272.4,262.5 "/>
<g>
	<polygon class="st7" points="289.9,167.1 217,130.6 289.9,94.2 362.7,130.6 	"/>
</g>
<polygon class="st5" points="269.8,238.7 223,215.3 223,200.7 269.8,224.1 "/>
<polygon class="st6" points="283.3,245.5 269.8,238.7 269.8,224.1 283.3,230.9 "/>
<polygon class="st1" points="272.4,226.9 275.1,228.2 275.1,240 272.4,238.7 "/>
<polygon class="st5" points="269.8,214.9 223,191.5 223,176.9 269.8,200.3 "/>
<polygon class="st6" points="283.3,221.7 269.8,214.9 269.8,200.3 283.3,207.1 "/>
<polygon class="st1" points="272.4,203 275.1,204.4 275.1,216.2 272.4,214.9 "/>
<polygon class="st5" points="269.8,191.1 223,167.7 223,153.1 269.8,176.5 "/>
<polygon class="st6" points="283.3,197.8 269.8,191.1 269.8,176.5 283.3,183.2 "/>
<polygon class="st1" points="272.4,179.2 275.1,180.5 275.1,192.3 272.4,191 "/>
<polygon class="st8" points="300.6,284.4 356.4,256.4 356.4,146.5 300.6,174.4 "/>
<g>
	<defs>
		<polygon id="SVGID_00000025429681824631924950000017770579411360023941_" points="300.6,296.4 356.4,268.5 356.4,146.5
			300.6,174.4 		"/>
	</defs>
	<clipPath id="SVGID_00000145056013924173708450000015414997642450909570_">
		<use xlink:href="#SVGID_00000025429681824631924950000017770579411360023941_"  style="overflow:visible;"/>
	</clipPath>
	<polygon style="clip-path:url(#SVGID_00000145056013924173708450000015414997642450909570_);fill:#2B454E;" points="291.4,289
		348.7,260.3 348.7,245.8 291.4,274.4 	"/>
	<polygon style="clip-path:url(#SVGID_00000145056013924173708450000015414997642450909570_);fill:#E6E6E6;" points="286.3,263.8
		293.6,273.3 348.7,245.8 328.5,235.7 	"/>
	<polygon style="clip-path:url(#SVGID_00000145056013924173708450000015414997642450909570_);fill:#2B454E;" points="291.4,265.2
		348.7,236.5 348.7,222 291.4,250.6 	"/>
	<polygon style="clip-path:url(#SVGID_00000145056013924173708450000015414997642450909570_);fill:#E6E6E6;" points="286.3,240
		293.6,249.5 348.7,222 328.5,211.8 	"/>
	<polygon style="clip-path:url(#SVGID_00000145056013924173708450000015414997642450909570_);fill:#2B454E;" points="291.4,241.3
		348.7,212.7 348.7,198.1 291.4,226.8 	"/>
	<polygon style="clip-path:url(#SVGID_00000145056013924173708450000015414997642450909570_);fill:#E6E6E6;" points="286.3,216.2
		293.6,225.7 348.7,198.1 328.5,188 	"/>
	<polygon style="clip-path:url(#SVGID_00000145056013924173708450000015414997642450909570_);fill:#2B454E;" points="291.4,217.5
		348.7,188.9 348.7,174.3 291.4,203 	"/>
	<polygon style="clip-path:url(#SVGID_00000145056013924173708450000015414997642450909570_);fill:#E6E6E6;" points="286.3,192.3
		293.6,201.9 348.7,174.3 328.5,164.2 	"/>
	<polygon style="clip-path:url(#SVGID_00000145056013924173708450000015414997642450909570_);fill:#2B454E;" points="291.4,193.7
		348.7,165 348.7,150.5 291.4,179.1 	"/>
	<polygon style="clip-path:url(#SVGID_00000145056013924173708450000015414997642450909570_);fill:#E6E6E6;" points="286.3,168.5
		293.6,178 348.7,150.5 328.5,140.4 	"/>
	<polygon style="clip-path:url(#SVGID_00000145056013924173708450000015414997642450909570_);fill:none;" points="300.6,296.4
		356.4,268.5 356.4,200.7 300.6,228.7 	"/>
</g>
<polygon class="st12" points="300.6,284.4 356.4,256.4 356.4,146.5 300.6,174.4 "/>
<polygon class="st13" points="355,147.2 355.3,255.8 300.6,283.1 300.6,284.4 356.4,256.4 356.4,146.5 "/>
<polygon class="st3" points="458.5,337.9 385.7,374.3 385.7,211.9 458.5,175.4 "/>
<polygon class="st4" points="385.7,374.3 312.8,337.9 312.8,175.4 385.7,211.9 "/>
<polygon class="st5" points="365.6,331.2 318.8,307.8 318.8,293.2 365.6,316.6 "/>
<polygon class="st6" points="379.1,337.9 365.6,331.2 365.6,316.6 379.1,323.3 "/>
<polygon class="st1" points="368.3,319.3 370.9,320.6 370.9,332.5 368.3,331.1 "/>
<polygon class="st5" points="365.6,307.4 318.8,284 318.8,269.3 365.6,292.8 "/>
<polygon class="st6" points="379.1,314.1 365.6,307.4 365.6,292.8 379.1,299.5 "/>
<polygon class="st1" points="368.3,295.5 370.9,296.8 370.9,308.6 368.3,307.3 "/>
<polygon class="st7" points="385.7,211.9 312.8,175.4 385.7,139 458.5,175.4 "/>
<polygon class="st5" points="365.6,283.5 318.8,260.1 318.8,245.5 365.6,268.9 "/>
<polygon class="st6" points="379.1,290.3 365.6,283.5 365.6,268.9 379.1,275.7 "/>
<polygon class="st1" points="368.3,271.7 370.9,273 370.9,284.8 368.3,283.5 "/>
<polygon class="st5" points="365.6,259.7 318.8,236.3 318.8,221.7 365.6,245.1 "/>
<polygon class="st6" points="379.1,266.5 365.6,259.7 365.6,245.1 379.1,251.9 "/>
<polygon class="st1" points="368.3,247.8 370.9,249.2 370.9,261 368.3,259.7 "/>
<polygon class="st5" points="365.6,235.9 318.8,212.5 318.8,197.9 365.6,221.3 "/>
<polygon class="st6" points="379.1,242.6 365.6,235.9 365.6,221.3 379.1,228 "/>
<polygon class="st1" points="368.3,224 370.9,225.3 370.9,237.2 368.3,235.8 "/>
<polygon class="st8" points="396.4,329.2 452.2,301.2 452.2,191.3 396.4,219.2 "/>
<g>
	<defs>
		<polygon id="SVGID_00000124131671101950077330000007060394025500940448_" points="396.4,341.3 452.2,313.3 452.2,191.3
			396.4,219.2 		"/>
	</defs>
	<clipPath id="SVGID_00000043415497927144593470000000230507370040363943_">
		<use xlink:href="#SVGID_00000124131671101950077330000007060394025500940448_"  style="overflow:visible;"/>
	</clipPath>
	<polygon style="clip-path:url(#SVGID_00000043415497927144593470000000230507370040363943_);fill:#2B454E;" points="387.2,333.8
		444.5,305.1 444.5,290.6 387.2,319.2 	"/>
	<polygon style="clip-path:url(#SVGID_00000043415497927144593470000000230507370040363943_);fill:#E6E6E6;" points="382.1,308.6
		389.4,318.1 444.5,290.6 424.3,280.5 	"/>
	<polygon style="clip-path:url(#SVGID_00000043415497927144593470000000230507370040363943_);fill:#2B454E;" points="387.2,310
		444.5,281.3 444.5,266.8 387.2,295.4 	"/>
	<polygon style="clip-path:url(#SVGID_00000043415497927144593470000000230507370040363943_);fill:#E6E6E6;" points="382.1,284.8
		389.4,294.3 444.5,266.8 424.3,256.7 	"/>
	<polygon style="clip-path:url(#SVGID_00000043415497927144593470000000230507370040363943_);fill:#2B454E;" points="387.2,286.1
		444.5,257.5 444.5,242.9 387.2,271.6 	"/>
	<polygon style="clip-path:url(#SVGID_00000043415497927144593470000000230507370040363943_);fill:#E6E6E6;" points="382.1,261
		389.4,270.5 444.5,242.9 424.3,232.8 	"/>
	<polygon style="clip-path:url(#SVGID_00000043415497927144593470000000230507370040363943_);fill:#2B454E;" points="387.2,262.3
		444.5,233.7 444.5,219.1 387.2,247.8 	"/>
	<polygon style="clip-path:url(#SVGID_00000043415497927144593470000000230507370040363943_);fill:#E6E6E6;" points="382.1,237.2
		389.4,246.7 444.5,219.1 424.3,209 	"/>
	<polygon style="clip-path:url(#SVGID_00000043415497927144593470000000230507370040363943_);fill:#2B454E;" points="387.2,238.5
		444.5,209.8 444.5,195.3 387.2,223.9 	"/>
	<polygon style="clip-path:url(#SVGID_00000043415497927144593470000000230507370040363943_);fill:#E6E6E6;" points="382.1,213.3
		389.4,222.8 444.5,195.3 424.3,185.2 	"/>
	<polygon style="clip-path:url(#SVGID_00000043415497927144593470000000230507370040363943_);fill:none;" points="396.4,341.3
		452.2,313.3 452.2,245.5 396.4,273.5 	"/>
</g>
<polygon class="st12" points="396.4,329.2 452.2,301.2 452.2,191.3 396.4,219.2 "/>
<polygon class="st13" points="450.8,192 451.2,300.6 396.4,327.9 396.4,329.2 452.2,301.2 452.2,191.3 "/>
<linearGradient id="SVGID_00000088819716718350962140000005180131414060652188_" gradientUnits="userSpaceOnUse" x1="157.7532" y1="64.466" x2="598.1393" y2="381.098">
	<stop  offset="8.011200e-04" style="stop-color:#871FFF"/>
	<stop  offset="1" style="stop-color:#80C7F5"/>
</linearGradient>
<path style="fill:url(#SVGID_00000088819716718350962140000005180131414060652188_);" d="M499.8,341.4c9.7,16.8,15.5,34.9,15.5,51.5
	c0,18.4-7.1,31.6-18.8,38.2c0.3-0.1,112.5-56.2,112.5-56.2c12.3-6.4,19.8-19.8,19.8-38.8c0-35.5-26.5-78-60.8-99.5l-113.5,56.8
	C472.8,304.9,488.8,322.3,499.8,341.4z"/>
<linearGradient id="SVGID_00000161597092402583817870000006383241715740106383_" gradientUnits="userSpaceOnUse" x1="200.3711" y1="5.1911" x2="640.7572" y2="321.8231">
	<stop  offset="8.011200e-04" style="stop-color:#871FFF"/>
	<stop  offset="1" style="stop-color:#80C7F5"/>
</linearGradient>
<path style="fill:url(#SVGID_00000161597092402583817870000006383241715740106383_);" d="M347.8,164.2c10.8-1.1,23.4,1.4,36.9,8.1
	c39.5,19.8,71.4,67.7,71.4,107.2c0,5-0.6,9.7-1.6,14l113.5-56.8c1-4.2,1.6-8.9,1.6-14c0-39.5-32-87.4-71.5-107.2
	c-13.5-6.7-26.1-9.2-36.9-8.1L347.8,164.2z"/>
<linearGradient id="SVGID_00000083089925323263388300000005510701735370598052_" gradientUnits="userSpaceOnUse" x1="121.1615" y1="115.3594" x2="561.5476" y2="431.9915">
	<stop  offset="8.011200e-04" style="stop-color:#871FFF"/>
	<stop  offset="1" style="stop-color:#80C7F5"/>
</linearGradient>
<path style="fill:url(#SVGID_00000083089925323263388300000005510701735370598052_);" d="M133.2,151.1c11.8-5.1,27.4-4.4,44.7,3.6
	c-0.7-5-1-9.9-1-14.8c0-3.8,0.2-7.5,0.7-11L133.2,151.1z"/>
<linearGradient id="SVGID_00000055669018918825398500000001344940413750273460_" gradientUnits="userSpaceOnUse" x1="208.4759" y1="-6.0814" x2="648.862" y2="310.5506">
	<stop  offset="8.011200e-04" style="stop-color:#871FFF"/>
	<stop  offset="1" style="stop-color:#80C7F5"/>
</linearGradient>
<path style="fill:url(#SVGID_00000055669018918825398500000001344940413750273460_);" d="M209.2,84c17-6.6,39.4-4.6,64,7.6
	c0.3,0.2,0.7,0.3,1,0.5c1.6,0.8,3.1,1.6,4.7,2.5c1.8,1,3.5,2,5.3,3.1c1.1,0.6,2.2,1.3,3.3,2.1c1.1,0.7,2.3,1.5,3.4,2.2
	c2.3,1.5,4.5,3.1,6.7,4.8c1.1,0.8,2.2,1.7,3.3,2.5c1.4,1.2,2.9,2.3,4.3,3.5c0.9,0.8,1.8,1.5,2.7,2.3c1,0.8,1.9,1.7,2.9,2.6
	c1.9,1.7,3.9,3.6,5.7,5.5c1.3,1.3,2.6,2.6,3.8,3.9c0,0,0.1,0.1,0.1,0.1c1.2,1.3,2.5,2.7,3.7,4.1c0.3,0.3,0.6,0.7,0.9,1
	c1.4,1.6,2.7,3.1,4,4.8c1.1,1.4,2.3,2.8,3.4,4.2c1,1.2,2,2.5,2.9,3.8c0.2,0.2,0.3,0.4,0.5,0.6c0.9,1.1,1.7,2.3,2.5,3.5
	c0.5,0.6,0.9,1.2,1.3,1.9c0.8,1.1,1.5,2.2,2.2,3.3c0.2,0.3,0.4,0.6,0.6,0.9c0.9,1.3,1.7,2.6,2.5,3.9c1,1.6,2,3.3,2.9,4.9l113.5-56.8
	c-17.7-30.4-44.5-57.5-74.6-72.5c-26.2-13.1-49.8-14.5-67.2-6.3l-2.3,1.2L209.2,84z"/>
<path class="st4" d="M111.1,190.9c0,38.5,31.2,85.4,69.8,104.6l264.6,132.3c38.5,19.3,69.8,3.7,69.8-34.9c0-35.5-26.5-78-60.8-99.5
	c1-4.2,1.6-8.9,1.6-14c0-39.5-32-87.4-71.4-107.2c-13.5-6.7-26.1-9.2-36.9-8.1c-17.7-30.4-44.5-57.5-74.6-72.5
	c-53.2-26.6-96.4-5-96.4,48.2c0,4.9,0.3,9.8,1,14.8C140.8,137.7,111.1,153.3,111.1,190.9z M118.7,190.9c0-22.2,11.6-35.5,31-35.5
	c7.7,0,16.2,2.1,25.1,6.1l12.5,5.8l-1.9-13.7c-0.7-4.7-1-9.4-1-13.8c0-32.5,17.1-52,45.8-52c12.1,0,25.8,3.7,39.7,10.6
	c27.7,13.9,53.7,39.2,71.4,69.6l2.5,4.2l4.9-0.5c1.4-0.2,2.8-0.2,4.3-0.2c8.8,0,18.4,2.6,28.4,7.6c37.1,18.5,67.2,63.6,67.2,100.4
	c0,4.3-0.5,8.4-1.4,12.3L446,297l4.5,2.9c32.7,20.5,57.3,60.5,57.3,93.1c0,22.3-11.6,35.5-31.1,35.5c-8.4,0-18-2.6-27.7-7.5
	L184.3,288.7C148.1,270.7,118.7,226.8,118.7,190.9z"/>
<g>

		<linearGradient id="XMLID_00000015318149812751862850000010279324879832951483_" gradientUnits="userSpaceOnUse" x1="509.8783" y1="370.8939" x2="571.696" y2="370.8939" gradientTransform="matrix(1 0 0 1 -167.4162 0)">
		<stop  offset="8.011200e-04" style="stop-color:#871FFF"/>
		<stop  offset="1" style="stop-color:#80C7F5"/>
	</linearGradient>
	<path id="XMLID_11818_" style="fill:url(#XMLID_00000015318149812751862850000010279324879832951483_);" d="M373.4,335.2
		c-17-9.8-30.9-1.8-30.9,17.8s13.9,43.7,30.9,53.5c17,9.8,30.9,1.8,30.9-17.8S390.4,345,373.4,335.2z"/>
	<path id="XMLID_11817_" class="st4" d="M369.3,336.2c-17-9.8-30.9-1.8-30.9,17.8c0,19.6,13.9,43.7,30.9,53.5
		c17,9.8,30.9,1.8,30.9-17.8C400.2,370.1,386.3,346,369.3,336.2z"/>
	<g id="XMLID_10900_">
		<path id="XMLID_11816_" class="st1" d="M364.8,388.8l-11-13.4c-1.5-1.8-1.3-4.5,0.6-6.1c1.8-1.5,4.5-1.3,6.1,0.6l5.7,6.9
			l13.9-10.9c1.9-1.5,4.6-1.2,6,0.7c1.5,1.9,1.2,4.6-0.7,6L364.8,388.8z"/>
	</g>
</g>
</svg>
