<svg xmlns="http://www.w3.org/2000/svg" id="canvas" viewBox="301.274 338.476 788.426 136.955"><path d="M 361.73,357.03 C 360.75 358.79, 360.73 361.56, 360.62 366.00 C 360.50 370.45, 360.96 373.33, 361.14 379.26 C 361.32 385.19, 361.32 389.22, 361.50 395.66 C 361.68 402.11, 361.94 405.52, 362.03 411.49 C 362.11 417.46, 361.91 420.31, 361.92 425.51 C 361.93 430.72, 361.96 433.49, 362.07 437.52 C 362.18 441.56, 362.06 443.19, 362.47 445.68 C 362.89 448.17, 363.36 448.95, 364.14 449.97 C 364.91 450.99, 365.87 450.86, 366.35 450.78 C 366.84 450.70, 366.75 449.48, 366.54 449.59 C 366.33 449.70, 365.15 450.95, 365.33 451.33 C 365.50 451.70, 366.69 451.90, 367.41 451.46 C 368.13 451.02, 368.55 450.45, 368.90 449.12 C 369.26 447.78, 369.43 447.19, 369.19 444.78 C 368.95 442.37, 368.24 440.95, 367.71 437.07 C 367.18 433.19, 366.82 430.52, 366.54 425.39 C 366.26 420.26, 366.43 417.38, 366.31 411.42 C 366.20 405.46, 366.04 402.03, 365.97 395.58 C 365.90 389.13, 366.01 385.09, 365.97 379.17 C 365.93 373.26, 365.87 370.41, 365.77 366.02 C 365.68 361.62, 366.29 359.00, 365.49 357.20 C 364.68 355.40, 362.70 355.27, 361.73 357.03" style="stroke: white; fill: white;"/><path d="M 309.75,377.35 C 310.88 376.41, 311.04 375.08, 311.78 372.57 C 312.52 370.06, 311.76 368.16, 313.44 364.82 C 315.12 361.47, 316.30 359.03, 320.18 355.86 C 324.07 352.68, 326.79 351.08, 332.87 348.94 C 338.96 346.80, 342.96 345.81, 350.61 345.17 C 358.26 344.52, 362.74 344.56, 371.11 345.71 C 379.48 346.86, 384.29 348.15, 392.47 350.93 C 400.66 353.70, 404.96 355.57, 412.05 359.58 C 419.14 363.59, 422.51 366.20, 427.93 370.97 C 433.35 375.74, 435.64 378.40, 439.16 383.45 C 442.68 388.49, 444.10 391.14, 445.52 396.21 C 446.94 401.28, 446.97 403.76, 446.28 408.80 C 445.59 413.83, 444.61 416.62, 442.09 421.39 C 439.57 426.16, 437.93 428.47, 433.69 432.63 C 429.45 436.79, 426.52 438.62, 420.88 442.18 C 415.25 445.73, 411.83 447.43, 405.53 450.39 C 399.24 453.35, 395.88 454.72, 389.42 456.97 C 382.97 459.23, 379.40 460.27, 373.25 461.67 C 367.11 463.07, 363.83 463.50, 358.70 463.97 C 353.57 464.45, 350.95 464.02, 347.60 464.04 C 344.25 464.06, 343.30 464.35, 341.97 464.06 C 340.64 463.77, 341.53 462.75, 340.96 462.58 C 340.39 462.40, 339.30 462.14, 339.11 463.17 C 338.92 464.19, 338.34 466.36, 340.02 467.68 C 341.69 469.01, 343.64 469.63, 347.49 469.78 C 351.34 469.94, 353.94 469.32, 359.28 468.45 C 364.61 467.59, 367.89 467.05, 374.17 465.44 C 380.44 463.84, 384.05 462.77, 390.64 460.42 C 397.22 458.08, 400.64 456.71, 407.09 453.71 C 413.54 450.71, 417.02 449.05, 422.90 445.41 C 428.78 441.76, 431.92 439.92, 436.49 435.51 C 441.07 431.09, 443.00 428.58, 445.77 423.34 C 448.55 418.10, 449.68 414.96, 450.37 409.32 C 451.06 403.68, 450.89 400.71, 449.22 395.13 C 447.55 389.55, 445.86 386.73, 442.02 381.41 C 438.18 376.10, 435.72 373.45, 430.02 368.56 C 424.32 363.67, 420.84 361.05, 413.52 356.97 C 406.20 352.88, 401.82 350.99, 393.43 348.12 C 385.03 345.26, 380.16 343.91, 371.55 342.64 C 362.93 341.37, 358.35 341.25, 350.36 341.75 C 342.38 342.24, 338.27 343.10, 331.63 345.11 C 324.99 347.13, 321.91 348.53, 317.16 351.82 C 312.41 355.10, 310.46 357.68, 307.89 361.55 C 305.33 365.42, 304.68 368.00, 304.34 371.15 C 303.99 374.29, 305.09 376.05, 306.17 377.29 C 307.26 378.53, 308.63 378.29, 309.75 377.35" style="stroke: white; fill: white;"/><path d="M 475.68,403.59 C 474.70 404.78, 474.22 406.27, 474.30 409.00 C 474.37 411.72, 475.31 413.41, 476.07 417.22 C 476.83 421.04, 477.33 423.78, 478.10 428.06 C 478.86 432.34, 479.17 434.86, 479.89 438.62 C 480.62 442.39, 480.52 444.48, 481.73 446.89 C 482.94 449.29, 484.18 450.26, 485.94 450.67 C 487.69 451.08, 489.29 450.63, 490.51 448.94 C 491.74 447.25, 492.38 445.58, 492.06 442.20 C 491.74 438.81, 490.23 436.34, 488.92 432.01 C 487.60 427.69, 486.64 424.74, 485.48 420.57 C 484.33 416.41, 484.00 414.31, 483.15 411.19 C 482.31 408.08, 481.89 406.51, 481.26 405.00 C 480.63 403.48, 479.84 403.44, 480.00 403.61 C 480.15 403.79, 480.17 405.12, 482.02 405.88 C 483.87 406.63, 485.49 406.89, 489.25 407.39 C 493.02 407.90, 495.55 407.94, 500.83 408.40 C 506.10 408.87, 509.31 409.33, 515.64 409.73 C 521.98 410.13, 525.82 410.33, 532.50 410.41 C 539.19 410.50, 542.91 410.31, 549.06 410.14 C 555.21 409.98, 558.24 409.84, 563.27 409.59 C 568.29 409.33, 570.60 409.52, 574.19 408.87 C 577.78 408.22, 579.32 407.74, 581.21 406.35 C 583.11 404.96, 583.58 403.84, 583.67 401.93 C 583.76 400.01, 583.37 398.51, 581.67 396.76 C 579.97 395.00, 578.36 393.67, 575.18 393.16 C 571.99 392.64, 569.67 393.20, 565.74 394.17 C 561.81 395.13, 559.56 395.91, 555.53 397.99 C 551.49 400.07, 549.02 401.36, 545.55 404.58 C 542.08 407.79, 540.23 410.09, 538.16 414.07 C 536.09 418.05, 535.54 420.41, 535.20 424.49 C 534.86 428.57, 534.96 430.93, 536.46 434.47 C 537.96 438.01, 539.51 439.92, 542.68 442.17 C 545.85 444.42, 548.22 445.13, 552.31 445.72 C 556.41 446.31, 558.79 445.99, 563.16 445.13 C 567.52 444.26, 569.92 443.34, 574.14 441.40 C 578.35 439.46, 580.68 438.21, 584.22 435.44 C 587.76 432.66, 589.34 430.78, 591.84 427.52 C 594.34 424.27, 595.55 422.37, 596.73 419.14 C 597.91 415.91, 598.36 413.77, 597.75 411.37 C 597.14 408.98, 595.53 407.49, 593.67 407.16 C 591.82 406.84, 589.93 407.71, 588.46 409.75 C 586.99 411.78, 586.40 413.94, 586.33 417.34 C 586.25 420.74, 586.91 423.12, 588.08 426.75 C 589.24 430.38, 590.15 432.47, 592.15 435.50 C 594.15 438.54, 595.43 439.88, 598.09 441.90 C 600.74 443.93, 602.36 444.66, 605.42 445.64 C 608.49 446.61, 610.49 446.83, 613.42 446.78 C 616.34 446.72, 617.92 446.19, 620.06 445.38 C 622.21 444.57, 622.90 443.84, 624.13 442.74 C 625.36 441.65, 626.07 441.01, 626.21 439.89 C 626.34 438.77, 625.75 437.72, 624.81 437.15 C 623.87 436.57, 622.86 436.94, 621.51 437.03 C 620.16 437.11, 619.70 437.40, 618.06 437.57 C 616.42 437.73, 615.40 437.84, 613.32 437.84 C 611.24 437.84, 609.75 438.02, 607.65 437.57 C 605.56 437.12, 604.56 436.84, 602.85 435.58 C 601.14 434.32, 600.30 433.49, 599.11 431.27 C 597.92 429.05, 597.40 427.34, 596.90 424.48 C 596.40 421.63, 596.88 419.66, 596.61 417.01 C 596.34 414.35, 596.25 412.82, 595.54 411.22 C 594.83 409.62, 593.96 409.01, 593.05 409.01 C 592.15 409.00, 591.72 409.70, 591.01 411.20 C 590.31 412.71, 590.40 414.02, 589.51 416.54 C 588.62 419.06, 588.38 420.96, 586.57 423.79 C 584.76 426.62, 583.44 428.28, 580.45 430.69 C 577.46 433.11, 575.33 434.23, 571.63 435.87 C 567.94 437.52, 565.65 438.26, 561.98 438.91 C 558.32 439.56, 556.37 439.60, 553.29 439.13 C 550.21 438.66, 548.74 438.01, 546.61 436.55 C 544.47 435.09, 543.61 434.16, 542.60 431.84 C 541.59 429.52, 541.35 427.96, 541.55 424.97 C 541.75 421.98, 541.98 420.05, 543.60 416.89 C 545.23 413.73, 546.74 411.73, 549.68 409.16 C 552.63 406.59, 554.87 405.44, 558.33 404.04 C 561.80 402.65, 563.88 402.32, 567.00 402.18 C 570.11 402.04, 571.56 403.16, 573.90 403.34 C 576.24 403.52, 577.33 403.36, 578.70 403.06 C 580.06 402.75, 580.68 402.15, 580.71 401.80 C 580.74 401.45, 580.37 401.07, 578.83 401.31 C 577.29 401.54, 576.20 402.26, 573.01 402.97 C 569.82 403.69, 567.68 404.28, 562.86 404.87 C 558.04 405.47, 554.97 405.66, 548.91 405.93 C 542.85 406.21, 539.15 406.40, 532.58 406.25 C 526.00 406.10, 522.23 405.86, 516.04 405.17 C 509.85 404.48, 506.73 403.84, 501.64 402.80 C 496.55 401.76, 494.31 400.82, 490.60 399.97 C 486.89 399.13, 485.63 398.46, 483.09 398.57 C 480.55 398.69, 479.50 399.17, 477.90 400.54 C 476.30 401.91, 475.46 402.94, 475.11 405.42 C 474.75 407.90, 475.36 409.54, 476.12 412.92 C 476.87 416.30, 477.82 418.11, 478.87 422.31 C 479.91 426.51, 480.49 429.60, 481.34 433.92 C 482.19 438.23, 482.27 440.95, 483.13 443.87 C 483.99 446.79, 484.66 447.55, 485.65 448.51 C 486.64 449.48, 487.41 449.46, 488.08 448.70 C 488.75 447.93, 489.22 446.98, 489.00 444.68 C 488.78 442.37, 487.74 440.72, 486.95 437.17 C 486.17 433.61, 485.75 431.13, 485.07 426.88 C 484.40 422.63, 484.17 419.76, 483.58 415.90 C 482.99 412.04, 483.01 410.16, 482.13 407.59 C 481.26 405.01, 480.49 403.84, 479.20 403.04 C 477.91 402.25, 476.66 402.40, 475.68 403.59" style="stroke: white; fill: white;"/><path d="M 635.61,406.73 C 634.29 407.30, 633.59 408.20, 632.54 410.32 C 631.48 412.43, 630.67 414.11, 630.31 417.31 C 629.95 420.52, 630.35 422.90, 630.73 426.35 C 631.12 429.80, 631.16 431.64, 632.24 434.57 C 633.32 437.50, 634.27 438.89, 636.11 440.98 C 637.96 443.08, 639.10 444.02, 641.49 445.04 C 643.87 446.06, 645.34 446.16, 648.05 446.11 C 650.77 446.05, 652.27 445.79, 655.06 444.76 C 657.85 443.73, 659.33 442.69, 662.03 440.96 C 664.72 439.23, 666.23 437.94, 668.51 436.11 C 670.79 434.28, 671.98 433.01, 673.42 431.81 C 674.87 430.61, 674.88 430.06, 675.73 430.11 C 676.58 430.15, 676.83 430.83, 677.69 432.04 C 678.55 433.25, 678.77 434.22, 680.03 436.15 C 681.29 438.08, 681.92 439.61, 683.99 441.70 C 686.05 443.78, 687.50 445.02, 690.37 446.58 C 693.24 448.13, 694.95 448.73, 698.33 449.47 C 701.72 450.21, 703.68 450.53, 707.30 450.28 C 710.92 450.03, 713.01 449.57, 716.43 448.22 C 719.86 446.87, 721.68 445.95, 724.42 443.53 C 727.17 441.11, 728.46 439.42, 730.17 436.13 C 731.88 432.85, 732.61 430.88, 732.97 427.11 C 733.34 423.34, 732.96 420.97, 731.99 417.28 C 731.02 413.60, 730.14 411.59, 728.10 408.69 C 726.07 405.80, 724.52 404.45, 721.82 402.82 C 719.11 401.18, 717.13 400.57, 714.57 400.53 C 712.01 400.49, 710.62 401.32, 709.03 402.62 C 707.43 403.93, 706.72 405.51, 706.59 407.07 C 706.46 408.62, 707.24 409.96, 708.38 410.39 C 709.52 410.82, 711.46 409.82, 712.28 409.20 C 713.10 408.59, 712.52 407.77, 712.48 407.33 C 712.44 406.89, 711.92 406.92, 712.08 407.01 C 712.24 407.09, 712.25 407.14, 713.28 407.75 C 714.31 408.35, 715.56 408.87, 717.22 410.02 C 718.87 411.17, 720.08 411.64, 721.54 413.51 C 723.00 415.38, 723.75 416.78, 724.53 419.37 C 725.30 421.95, 725.63 423.78, 725.42 426.43 C 725.21 429.08, 724.68 430.36, 723.48 432.61 C 722.27 434.87, 721.36 436.06, 719.39 437.71 C 717.43 439.37, 716.16 440.00, 713.66 440.90 C 711.15 441.79, 709.54 442.13, 706.88 442.20 C 704.22 442.27, 702.76 441.95, 700.35 441.26 C 697.93 440.58, 696.75 439.97, 694.81 438.78 C 692.88 437.60, 692.16 437.00, 690.68 435.35 C 689.21 433.70, 689.05 432.37, 687.44 430.52 C 685.83 428.67, 684.84 427.44, 682.62 426.09 C 680.40 424.75, 678.93 424.09, 676.34 423.80 C 673.76 423.51, 672.35 423.69, 669.67 424.64 C 667.00 425.60, 665.53 426.86, 662.99 428.56 C 660.44 430.26, 659.25 431.62, 656.94 433.15 C 654.63 434.68, 653.43 435.20, 651.45 436.19 C 649.46 437.18, 648.50 437.59, 647.00 438.09 C 645.51 438.58, 644.97 438.96, 643.98 438.67 C 642.98 438.37, 642.69 437.90, 642.02 436.60 C 641.35 435.30, 641.02 434.36, 640.64 432.17 C 640.25 429.98, 640.17 428.49, 640.10 425.66 C 640.02 422.84, 640.19 420.81, 640.27 418.05 C 640.36 415.30, 640.74 414.00, 640.51 411.88 C 640.28 409.77, 640.11 408.51, 639.13 407.48 C 638.15 406.45, 636.93 406.16, 635.61 406.73" style="stroke: white; fill: white;"/><path d="M 802.66,411.34 C 802.89 409.87, 802.52 408.41, 801.06 406.75 C 799.59 405.08, 798.15 403.86, 795.34 403.02 C 792.52 402.18, 790.50 401.85, 786.99 402.55 C 783.48 403.25, 781.52 404.31, 777.77 406.52 C 774.01 408.73, 771.70 410.36, 768.22 413.60 C 764.75 416.84, 763.01 418.99, 760.39 422.69 C 757.76 426.40, 756.37 428.35, 755.10 432.14 C 753.83 435.94, 753.38 438.23, 754.04 441.67 C 754.70 445.11, 756.00 447.02, 758.41 449.32 C 760.81 451.63, 762.67 452.52, 766.07 453.19 C 769.47 453.86, 771.58 453.53, 775.42 452.67 C 779.26 451.80, 781.46 451.13, 785.28 448.88 C 789.10 446.63, 790.99 445.07, 794.50 441.40 C 798.02 437.74, 799.71 435.44, 802.86 430.55 C 806.01 425.66, 807.67 422.70, 810.26 416.95 C 812.86 411.20, 814.06 407.81, 815.84 401.80 C 817.62 395.80, 818.32 392.54, 819.16 386.92 C 820.00 381.31, 820.28 378.44, 820.03 373.73 C 819.78 369.03, 819.45 366.58, 817.92 363.42 C 816.38 360.26, 814.78 358.95, 812.37 357.93 C 809.97 356.92, 808.00 356.93, 805.89 358.35 C 803.77 359.78, 802.47 361.34, 801.79 365.06 C 801.10 368.78, 801.83 371.62, 802.45 376.95 C 803.07 382.28, 803.64 385.61, 804.90 391.71 C 806.17 397.81, 807.12 401.23, 808.79 407.47 C 810.47 413.70, 811.38 417.12, 813.26 422.88 C 815.14 428.63, 816.10 431.39, 818.19 436.23 C 820.27 441.07, 821.51 443.28, 823.68 447.09 C 825.85 450.89, 826.79 452.51, 829.02 455.28 C 831.26 458.04, 832.36 459.43, 834.85 460.91 C 837.33 462.39, 839.37 462.58, 841.45 462.67 C 843.52 462.77, 844.41 462.16, 845.23 461.39 C 846.06 460.62, 846.00 459.78, 845.58 458.84 C 845.15 457.91, 844.49 457.58, 843.11 456.71 C 841.74 455.85, 840.57 455.64, 838.70 454.50 C 836.83 453.36, 835.86 453.05, 833.75 451.00 C 831.64 448.96, 830.43 447.63, 828.15 444.30 C 825.87 440.97, 824.52 438.90, 822.34 434.35 C 820.16 429.80, 819.15 427.14, 817.26 421.55 C 815.38 415.96, 814.44 412.54, 812.92 406.40 C 811.39 400.26, 810.53 396.83, 809.63 390.86 C 808.73 384.89, 808.50 381.51, 808.40 376.53 C 808.30 371.56, 808.97 368.95, 809.12 365.98 C 809.27 363.01, 809.07 362.43, 809.16 361.69 C 809.26 360.94, 809.04 361.34, 809.60 362.24 C 810.16 363.14, 810.92 363.79, 811.98 366.18 C 813.03 368.57, 814.33 370.18, 814.87 374.20 C 815.42 378.23, 815.33 381.04, 814.71 386.32 C 814.08 391.60, 813.43 394.84, 811.75 400.60 C 810.07 406.36, 808.86 409.66, 806.30 415.13 C 803.74 420.59, 802.04 423.43, 798.93 427.92 C 795.81 432.41, 794.06 434.50, 790.73 437.57 C 787.40 440.65, 785.62 441.72, 782.29 443.29 C 778.96 444.86, 777.06 445.03, 774.07 445.44 C 771.09 445.85, 769.56 445.60, 767.36 445.35 C 765.15 445.10, 764.30 445.17, 763.05 444.18 C 761.80 443.18, 761.44 442.37, 761.10 440.37 C 760.75 438.37, 760.45 436.98, 761.33 434.17 C 762.21 431.36, 763.26 429.47, 765.50 426.32 C 767.74 423.16, 769.42 421.10, 772.54 418.40 C 775.67 415.71, 777.95 414.29, 781.12 412.83 C 784.29 411.37, 786.05 411.37, 788.40 411.10 C 790.75 410.84, 791.32 411.08, 792.87 411.51 C 794.41 411.94, 794.73 412.74, 796.14 413.25 C 797.55 413.76, 798.61 414.45, 799.91 414.07 C 801.22 413.69, 802.44 412.80, 802.66 411.34" style="stroke: white; fill: white;"/><path d="M 908.83,420.83 C 909.50 419.63, 909.56 418.51, 908.95 416.48 C 908.33 414.44, 907.92 412.08, 905.75 410.64 C 903.57 409.19, 900.18 408.52, 898.06 409.25 C 895.95 409.98, 895.00 412.24, 895.17 414.28 C 895.34 416.32, 897.44 418.08, 898.91 419.46 C 900.39 420.84, 901.21 420.59, 902.54 421.20 C 903.88 421.81, 904.34 422.58, 905.60 422.51 C 906.85 422.44, 908.16 422.04, 908.83 420.83" style="stroke: white; fill: white;"/><path d="M 866.74,414.09 C 864.72 414.13, 862.16 415.57, 858.78 417.68 C 855.40 419.79, 853.13 421.46, 849.83 424.64 C 846.52 427.81, 843.89 429.90, 842.27 433.57 C 840.65 437.24, 840.84 439.59, 841.71 442.98 C 842.59 446.37, 844.04 448.24, 846.63 450.52 C 849.21 452.81, 851.11 453.44, 854.63 454.39 C 858.15 455.33, 860.35 455.45, 864.23 455.27 C 868.12 455.08, 870.15 454.58, 874.04 453.44 C 877.94 452.30, 879.87 451.41, 883.69 449.55 C 887.50 447.70, 889.65 446.68, 893.13 444.18 C 896.60 441.68, 899.06 439.84, 901.06 437.05 C 903.06 434.25, 903.32 432.02, 903.13 430.21 C 902.95 428.40, 901.56 427.78, 900.11 427.99 C 898.67 428.21, 897.04 429.05, 895.92 431.29 C 894.81 433.53, 894.00 435.95, 894.55 439.20 C 895.09 442.44, 896.51 444.68, 898.66 447.52 C 900.80 450.37, 902.45 451.47, 905.28 453.42 C 908.11 455.36, 909.66 456.04, 912.80 457.23 C 915.94 458.42, 917.90 458.96, 920.99 459.37 C 924.09 459.79, 925.78 459.79, 928.29 459.30 C 930.80 458.82, 932.52 458.11, 933.55 456.96 C 934.57 455.80, 934.42 454.61, 933.41 453.53 C 932.41 452.46, 930.71 452.20, 928.51 451.59 C 926.30 450.97, 924.96 450.92, 922.39 450.44 C 919.83 449.97, 918.08 450.01, 915.66 449.21 C 913.25 448.42, 912.08 447.84, 910.30 446.46 C 908.52 445.08, 907.64 444.17, 906.77 442.32 C 905.90 440.46, 906.35 439.22, 905.97 437.19 C 905.59 435.16, 905.60 433.91, 904.87 432.15 C 904.14 430.39, 903.56 429.28, 902.32 428.40 C 901.08 427.53, 900.22 427.07, 898.66 427.78 C 897.11 428.48, 896.49 429.70, 894.54 431.91 C 892.60 434.13, 891.68 436.48, 888.94 438.84 C 886.21 441.21, 884.22 442.14, 880.88 443.74 C 877.54 445.35, 875.62 446.04, 872.26 446.88 C 868.89 447.71, 867.18 447.94, 864.06 447.92 C 860.93 447.90, 859.18 447.41, 856.62 446.77 C 854.06 446.13, 852.94 445.84, 851.24 444.72 C 849.55 443.60, 848.68 442.80, 848.15 441.18 C 847.62 439.56, 847.30 438.96, 848.58 436.62 C 849.86 434.28, 851.75 432.23, 854.54 429.48 C 857.33 426.73, 859.66 425.27, 862.53 422.87 C 865.39 420.47, 868.02 419.22, 868.86 417.47 C 869.70 415.71, 868.75 414.05, 866.74 414.09" style="stroke: white; fill: white;"/><path d="M 978.85,417.14 C 978.43 415.53, 977.44 413.74, 974.84 412.25 C 972.25 410.75, 970.03 410.20, 965.87 409.66 C 961.70 409.13, 958.58 409.05, 954.02 409.58 C 949.46 410.11, 946.98 410.75, 943.06 412.31 C 939.14 413.87, 936.61 414.68, 934.42 417.37 C 932.22 420.07, 931.59 422.51, 932.07 425.77 C 932.54 429.04, 934.01 430.79, 936.79 433.71 C 939.57 436.62, 941.75 437.69, 945.98 440.35 C 950.22 443.00, 953.19 444.39, 957.95 446.99 C 962.72 449.59, 965.71 450.98, 969.81 453.35 C 973.92 455.73, 975.77 457.27, 978.49 458.88 C 981.21 460.50, 982.38 461.00, 983.41 461.44 C 984.43 461.88, 984.46 461.37, 983.60 461.08 C 982.74 460.79, 981.50 459.99, 979.09 459.97 C 976.67 459.95, 974.77 460.63, 971.53 460.99 C 968.29 461.35, 966.17 461.82, 962.88 461.77 C 959.59 461.73, 957.73 461.20, 955.10 460.77 C 952.46 460.34, 951.32 459.99, 949.71 459.63 C 948.09 459.27, 947.67 459.09, 947.02 458.97 C 946.36 458.85, 946.48 458.84, 946.43 459.03 C 946.37 459.22, 946.65 459.86, 946.75 459.93 C 946.84 460.01, 947.21 460.28, 946.91 459.40 C 946.60 458.53, 946.09 456.18, 945.23 455.54 C 944.37 454.90, 943.23 455.35, 942.62 456.21 C 942.00 457.07, 942.00 458.51, 942.16 459.85 C 942.33 461.19, 942.53 461.62, 943.44 462.92 C 944.36 464.22, 944.73 465.10, 946.73 466.35 C 948.73 467.60, 950.27 468.43, 953.45 469.14 C 956.64 469.86, 958.88 469.75, 962.64 469.92 C 966.39 470.08, 968.58 470.16, 972.23 469.98 C 975.89 469.80, 978.06 470.10, 980.91 469.02 C 983.76 467.94, 985.25 466.64, 986.51 464.58 C 987.77 462.52, 988.10 460.96, 987.21 458.72 C 986.33 456.48, 985.00 455.43, 982.06 453.38 C 979.12 451.32, 976.81 450.68, 972.52 448.44 C 968.23 446.20, 965.27 444.80, 960.63 442.17 C 955.98 439.55, 953.11 437.95, 949.29 435.31 C 945.47 432.68, 943.77 431.14, 941.51 429.00 C 939.26 426.86, 938.45 425.99, 938.01 424.60 C 937.57 423.22, 937.80 423.23, 939.30 422.08 C 940.81 420.92, 942.45 419.92, 945.53 418.81 C 948.62 417.71, 950.89 416.89, 954.74 416.55 C 958.58 416.22, 961.34 416.54, 964.75 417.14 C 968.15 417.74, 969.32 418.93, 971.76 419.56 C 974.19 420.19, 975.51 420.76, 976.92 420.28 C 978.34 419.80, 979.26 418.74, 978.85 417.14" style="stroke: white; fill: white;"/><path d="M 1006.32,386.68 C 1005.39 387.33, 1005.21 387.73, 1004.79 389.48 C 1004.36 391.22, 1004.00 392.16, 1004.21 395.42 C 1004.43 398.68, 1005.09 401.10, 1005.87 405.78 C 1006.65 410.46, 1007.24 413.54, 1008.12 418.82 C 1009.01 424.10, 1009.50 427.10, 1010.30 432.19 C 1011.09 437.28, 1011.52 439.96, 1012.11 444.28 C 1012.70 448.60, 1012.39 450.69, 1013.25 453.79 C 1014.11 456.89, 1014.82 458.22, 1016.41 459.78 C 1018.00 461.35, 1019.13 461.58, 1021.20 461.60 C 1023.26 461.62, 1024.59 461.43, 1026.73 459.89 C 1028.86 458.35, 1029.73 456.72, 1031.86 453.90 C 1033.99 451.08, 1035.14 448.73, 1037.38 445.79 C 1039.62 442.85, 1040.82 441.31, 1043.08 439.21 C 1045.34 437.11, 1046.57 436.33, 1048.68 435.30 C 1050.80 434.27, 1051.70 434.07, 1053.66 434.07 C 1055.61 434.07, 1056.58 434.56, 1058.45 435.31 C 1060.33 436.06, 1061.31 436.53, 1063.03 437.81 C 1064.75 439.08, 1065.56 440.05, 1067.05 441.68 C 1068.54 443.31, 1069.56 444.15, 1070.49 445.96 C 1071.41 447.78, 1071.24 448.48, 1071.68 450.76 C 1072.12 453.04, 1072.04 454.74, 1072.69 457.36 C 1073.34 459.97, 1073.83 461.42, 1074.94 463.84 C 1076.06 466.26, 1076.50 467.75, 1078.26 469.46 C 1080.02 471.18, 1082.06 472.40, 1083.74 472.43 C 1085.43 472.46, 1086.48 471.12, 1086.68 469.60 C 1086.88 468.09, 1085.48 466.68, 1084.75 464.87 C 1084.01 463.07, 1083.68 462.52, 1083.01 460.57 C 1082.35 458.61, 1082.06 457.45, 1081.43 455.11 C 1080.81 452.77, 1080.58 451.42, 1079.91 448.86 C 1079.24 446.31, 1079.30 444.97, 1078.08 442.32 C 1076.87 439.67, 1075.89 437.94, 1073.84 435.61 C 1071.79 433.27, 1070.38 432.24, 1067.81 430.65 C 1065.24 429.06, 1063.88 428.50, 1061.01 427.66 C 1058.13 426.82, 1056.56 426.31, 1053.43 426.46 C 1050.31 426.61, 1048.44 426.97, 1045.39 428.42 C 1042.33 429.87, 1040.96 431.27, 1038.15 433.72 C 1035.34 436.17, 1034.05 437.76, 1031.34 440.67 C 1028.63 443.57, 1026.77 445.49, 1024.58 448.24 C 1022.38 450.98, 1021.23 452.44, 1020.36 454.38 C 1019.48 456.31, 1020.09 457.37, 1020.19 457.93 C 1020.29 458.48, 1020.87 458.35, 1020.85 457.17 C 1020.83 456.00, 1020.72 454.83, 1020.09 452.05 C 1019.46 449.27, 1018.61 447.42, 1017.69 443.28 C 1016.77 439.14, 1016.28 436.41, 1015.47 431.37 C 1014.66 426.32, 1014.21 423.30, 1013.62 418.05 C 1013.04 412.80, 1012.67 409.75, 1012.54 405.12 C 1012.41 400.50, 1013.11 398.16, 1012.96 394.92 C 1012.80 391.67, 1012.47 390.65, 1011.76 388.91 C 1011.06 387.17, 1010.52 386.67, 1009.44 386.23 C 1008.35 385.78, 1007.25 386.03, 1006.32 386.68" style="stroke: white; fill: white;"/></svg>